<svg width="80" height="80" viewBox="0 0 80 80" fill="none" xmlns="http://www.w3.org/2000/svg">
<path d="M40 1.25C17.9032 1.25 0 18.5938 0 40C0 61.4062 17.9032 78.75 40 78.75C62.0968 78.75 80 61.4062 80 40C80 18.5938 62.0968 1.25 40 1.25ZM59.6452 27.7969L53.0806 57.7656C52.5968 59.8906 51.2903 60.4063 49.4677 59.4062L39.4677 52.2656L34.6452 56.7656C34.1129 57.2812 33.6613 57.7188 32.629 57.7188L33.3387 47.8594L51.871 31.6406C52.6774 30.9531 51.6935 30.5625 50.629 31.25L27.7258 45.2188L17.8548 42.2344C15.7097 41.5781 15.6613 40.1562 18.3065 39.1562L56.871 24.75C58.6613 24.125 60.2258 25.1719 59.6452 27.7969Z" fill="black"/>
</svg>
