<svg width="80" height="80" viewBox="0 0 80 80" fill="none" xmlns="http://www.w3.org/2000/svg">
<path d="M40 19.1875C27.0179 19.1875 16.4643 28.4219 16.4464 39.7812C16.4464 43.6719 17.6964 47.4688 20.0536 50.7344L20.6071 51.5156L18.2321 59.1094L27.1429 57.0625L28 57.5156C31.6071 59.3906 35.75 60.3906 39.9821 60.3906H40C52.9643 60.3906 63.8036 51.1562 63.8036 39.7969C63.8036 34.2969 61.0893 29.125 56.6429 25.2344C52.1786 21.3281 46.2857 19.1875 40 19.1875ZM53.8393 48.625C53.25 50.0781 50.4286 51.3906 49.0714 51.5625C46.8214 51.8594 45.0714 51.7031 40.5893 50.0156C33.5 47.3281 28.8571 41.0781 28.5 40.6719C28.1429 40.2656 25.6071 37.3125 25.6071 34.2656C25.6071 31.2188 27.4286 29.7188 28.0893 29.0938C28.7321 28.4688 29.5 28.3125 29.9821 28.3125C30.4464 28.3125 30.9286 28.3125 31.3393 28.3281C31.7679 28.3438 32.3571 28.1875 32.9286 29.3906C33.5179 30.625 34.9286 33.6719 35.1071 33.9844C35.2857 34.2969 35.4107 34.6562 35.1607 35.0625C33.8036 37.4375 32.3571 37.3438 33.0893 38.4375C35.8214 42.5469 38.5536 43.9688 42.7143 45.7969C43.4286 46.1094 43.8393 46.0625 44.25 45.6406C44.6607 45.2344 46.0179 43.8281 46.4821 43.2188C46.9464 42.5938 47.4286 42.7031 48.0714 42.9062C48.7143 43.1094 52.1964 44.6094 52.9107 44.9219C53.625 45.2344 54.0893 45.3906 54.2679 45.6406C54.4286 45.9375 54.4286 47.1875 53.8393 48.625ZM71.4286 5H8.57143C3.83929 5 0 8.35938 0 12.5V67.5C0 71.6406 3.83929 75 8.57143 75H71.4286C76.1607 75 80 71.6406 80 67.5V12.5C80 8.35938 76.1607 5 71.4286 5ZM39.9821 64.5625C35.2321 64.5625 30.5714 63.5156 26.4464 61.5469L11.4286 65L15.4464 52.1562C12.9643 48.4062 11.6607 44.1406 11.6607 39.7656C11.6786 26.1094 24.375 15 39.9821 15C47.5536 15 54.6607 17.5781 60.0179 22.2656C65.3571 26.9531 68.5714 33.1719 68.5714 39.7969C68.5714 53.4531 55.5893 64.5625 39.9821 64.5625Z" fill="black"/>
</svg>
